<?xml version="1.0" standalone="no"?>
<!DOCTYPE svg PUBLIC "-//W3C//DTD SVG 20010904//EN"
 "http://www.w3.org/TR/2001/REC-SVG-20010904/DTD/svg10.dtd">
<svg version="1.0" xmlns="http://www.w3.org/2000/svg"
 width="650.000000pt" height="650.000000pt" viewBox="0 0 650.000000 650.000000"
 preserveAspectRatio="xMidYMid meet">
<metadata>
Created by potrace 1.11, written by Peter Selinger 2001-2013
</metadata>
<g transform="translate(0.000000,650.000000) scale(0.100000,-0.100000)"
fill="#000000" stroke="none">
<path d="M1855 5000 c-114 -12 -276 -47 -375 -82 -380 -133 -680 -445 -804
-835 -54 -174 -66 -262 -66 -507 0 -185 4 -244 20 -331 54 -279 163 -500 336
-685 154 -163 386 -308 566 -354 48 -12 54 -16 66 -52 20 -59 132 -222 213
-307 320 -344 795 -451 1303 -296 190 58 276 108 276 160 0 35 -31 69 -62 69
-13 0 -63 -7 -113 -16 -235 -42 -469 21 -652 175 -67 56 -178 204 -167 222 3
5 31 16 62 24 238 66 422 173 593 344 170 170 261 328 334 579 48 170 59 273
52 531 -4 202 -7 224 -36 334 -44 165 -56 199 -111 313 -172 356 -545 620
-981 693 -136 23 -344 32 -454 21z m283 -145 c292 -51 468 -280 558 -723 33
-165 44 -299 44 -562 0 -256 -11 -396 -45 -562 -77 -377 -206 -582 -435 -692
-65 -31 -65 -31 -235 -31 -169 0 -170 0 -235 31 -228 109 -358 314 -435 689
-37 176 -48 360 -42 675 6 294 15 368 67 565 84 318 223 508 426 585 109 40
206 48 332 25z"/>
<path d="M3650 4910 c-26 -26 -26 -72 1 -96 17 -16 43 -20 141 -25 138 -7 166
-20 182 -85 13 -53 13 -2225 0 -2278 -15 -60 -46 -77 -150 -83 -124 -6 -152
-11 -175 -34 -25 -25 -24 -74 1 -99 20 -20 33 -20 698 -20 654 0 680 1 696 19
25 27 24 78 -3 104 -20 20 -35 22 -174 28 -167 6 -208 18 -230 67 -9 20 -13
175 -15 575 l-3 547 68 0 c83 0 215 -31 284 -66 137 -69 226 -208 244 -379 11
-99 58 -133 116 -86 l24 19 0 627 0 627 -24 19 c-56 46 -104 8 -115 -93 -23
-211 -118 -378 -255 -448 -57 -28 -168 -56 -263 -65 l-78 -7 1 343 c1 189 4
421 8 514 6 158 8 172 30 202 39 52 61 56 274 50 218 -6 287 -16 405 -56 113
-39 183 -83 271 -171 98 -97 140 -181 156 -312 11 -85 64 -115 128 -74 l27 18
0 342 -1 341 -24 28 -24 27 -1101 0 c-1087 0 -1100 0 -1120 -20z"/>
</g>
</svg>
