<?xml version="1.0" standalone="no"?>
<!DOCTYPE svg PUBLIC "-//W3C//DTD SVG 20010904//EN"
 "http://www.w3.org/TR/2001/REC-SVG-20010904/DTD/svg10.dtd">
<svg version="1.0" xmlns="http://www.w3.org/2000/svg"
 width="84.000000pt" height="84.000000pt" viewBox="0 0 84.000000 84.000000"
 preserveAspectRatio="xMidYMid meet">
<metadata>
Created by potrace 1.11, written by Peter Selinger 2001-2013
</metadata>
<g transform="translate(0.000000,84.000000) scale(0.100000,-0.100000)"
fill="#000000" stroke="none">
<path d="M187 616 c-21 -8 -48 -22 -59 -33 -85 -77 -74 -247 20 -305 20 -12
55 -41 78 -64 23 -24 55 -45 73 -49 43 -9 116 2 131 20 11 13 7 15 -23 15 -42
0 -84 17 -91 36 -3 9 9 21 33 34 60 30 85 72 89 152 5 81 -8 117 -54 158 -55
48 -126 61 -197 36z m116 -26 c61 -49 65 -234 5 -297 -47 -50 -115 -20 -137
62 -43 159 40 307 132 235z"/>
<path d="M470 610 c0 -5 9 -10 20 -10 19 0 20 -7 20 -160 0 -153 -1 -160 -20
-160 -11 0 -20 -4 -20 -10 0 -6 39 -10 96 -10 61 0 93 4 89 10 -3 6 -17 10
-31 10 -23 0 -24 2 -24 81 0 79 0 80 23 73 30 -9 45 -22 52 -45 4 -10 11 -19
16 -19 12 0 12 157 -1 165 -5 3 -10 0 -10 -8 0 -23 -40 -67 -61 -67 -17 0 -19
8 -19 70 l0 70 40 0 c53 0 98 -24 106 -55 10 -42 24 -28 24 25 l0 50 -150 0
c-93 0 -150 -4 -150 -10z"/>
</g>
</svg>
